<?xml version="1.0" encoding="utf-8"?>
<!-- Generator: Adobe Illustrator 25.4.1, SVG Export Plug-In . SVG Version: 6.00 Build 0)  -->
<svg version="1.1" id="Capa_1" xmlns="http://www.w3.org/2000/svg" xmlns:xlink="http://www.w3.org/1999/xlink" x="0px" y="0px"
	 viewBox="0 0 64 64" style="enable-background:new 0 0 64 64;" xml:space="preserve">
<style type="text/css">
	.st0{fill:#242C4F;}
	.st1{fill:#31BBED;}
	.st2{fill:#004F90;}
	.st3{fill:#50535C;}
</style>
<g>
	<path class="st0" d="M56.49,27.2l-1.5-0.64c-1.32-0.56-2.64-1.12-3.95-1.71c-1.8-0.8-3.55-0.37-4.67,1.14
		c-0.32,0.43-0.68,0.86-1.03,1.27c-0.1,0.11-0.19,0.23-0.29,0.34c-2.54-1.55-4.54-3.53-6.09-6.04l1.73-1.43
		c1.4-1.16,1.79-2.63,1.13-4.27c-0.87-2.14-1.71-4.11-2.56-6.04c-0.74-1.66-2.34-2.5-4.1-2.14c-1.9,0.39-3.8,0.83-5.64,1.3
		c-1.74,0.45-2.82,1.85-2.75,3.58c0.07,1.69,0.21,3.17,0.41,4.52c0.41,2.74,1.28,5.39,2.59,7.86c1.74,3.29,4.02,6.12,6.77,8.43
		c2.51,2.1,5.1,3.63,7.93,4.69c2.85,1.07,5.88,1.63,9.25,1.73c0.06,0,0.11,0,0.16,0c1.93,0,3.23-1.03,3.67-2.92
		c0.41-1.74,0.81-3.48,1.21-5.23C59.23,29.62,58.42,28.03,56.49,27.2z M38.33,17.3c-0.88,0.69-1.76,1.39-2.64,2.09
		c-1.01,0.81-1.16,1.58-0.53,2.74c1.04,1.94,2.28,3.66,3.69,5.12c1.68,1.74,3.65,3.17,5.84,4.24c0.59,0.29,1.49,0.41,2.39-0.67
		l0.35-0.41c0.61-0.72,1.21-1.44,1.8-2.18c0.13-0.17,0.17-0.17,0.37-0.09c1.31,0.57,2.63,1.14,3.95,1.7l1.43,0.61
		c0.17,0.07,0.27,0.12,0.28,0.12c0.01,0.03,0,0.1-0.05,0.32l-0.36,1.59c-0.26,1.16-0.53,2.32-0.79,3.48
		c-0.03,0.12-0.05,0.14-0.05,0.14c0,0-0.03,0.01-0.12,0.01c-0.12-0.01-0.24-0.01-0.36-0.01c-0.09,0-0.18,0-0.27,0l-0.25,0
		c-2.59-0.15-4.93-0.63-7.16-1.46c-2.94-1.09-5.62-2.78-7.97-5.01c-2.46-2.33-4.35-5.04-5.64-8.04c-0.86-2.01-1.42-4.2-1.66-6.49
		c-0.05-0.47-0.08-0.95-0.11-1.43c-0.02-0.34-0.04-0.68-0.07-1.02c-0.01-0.11,0.01-0.15,0.01-0.15c0,0,0.03-0.03,0.15-0.05
		c1.73-0.38,3.47-0.78,5.19-1.19c0.06-0.01,0.09-0.02,0.11-0.02c0.01,0,0.01,0,0.01,0c0,0,0.03,0.03,0.06,0.1
		c0.81,1.91,1.63,3.82,2.46,5.72c0.03,0.06,0.03,0.09,0.03,0.09C38.43,17.21,38.41,17.24,38.33,17.3z"/>
	<g>
		<circle class="st0" cx="23.66" cy="33.35" r="4.23"/>
		<path class="st0" d="M22.21,38.29c-3.13,0-5.68,2.55-5.68,5.68c0,0.74,0.6,1.34,1.34,1.34h11.59c0.74,0,1.34-0.6,1.34-1.34
			c0-3.13-2.55-5.68-5.68-5.68H22.21z"/>
		<path class="st0" d="M42.19,40.41l0-0.24l-0.22-0.1c-1.03-0.48-2.03-0.99-2.97-1.53l-0.56-0.32v7.41c0,0.81-0.15,0.95-0.97,0.95
			H9.88c-0.87,0-1.01-0.14-1.01-1V28.07c0-0.8,0.17-0.98,0.96-0.98h17.94l-0.25-0.53c-0.46-0.98-0.85-1.97-1.16-2.96l-0.08-0.26
			l-4.69,0c-3.97,0-7.93,0-11.9,0c-2.59,0-4.55,1.96-4.56,4.55c-0.02,6.3-0.02,12.15,0,17.89c0.01,1.48,0.57,2.68,1.68,3.56
			c0.83,0.66,1.8,0.98,2.97,0.98c2.06,0.01,4.11,0.01,6.17,0l2.47,0l-0.06,0.34c-0.13,0.66-0.25,1.3-0.35,1.93
			c0,0.02-0.01,0.03-0.01,0.04c-0.02,0-0.04,0-0.06,0c-0.9-0.01-1.8-0.02-2.7,0c-0.7,0.01-1.31,0.29-1.67,0.77
			c-0.34,0.45-0.43,1.03-0.27,1.63c0.24,0.85,0.97,1.34,2.02,1.34l16.71,0c0.02,0,0.03,0,0.05,0c0.03,0,0.06,0,0.1,0
			c0.69-0.04,1.25-0.34,1.59-0.82c0.32-0.45,0.4-1.01,0.23-1.59c-0.24-0.82-0.96-1.32-1.94-1.33c-0.42,0-0.84,0-1.26,0
			c-0.49,0-0.99,0-1.47-0.01c-0.01,0-0.01,0-0.02-0.01c-0.14-0.69-0.27-1.38-0.4-2.09l-0.04-0.2l2.67,0c2.01,0,4.02,0,6.03,0
			c2.66-0.01,4.6-1.92,4.61-4.54c0-1.03,0-2.07,0-3.1L42.19,40.41z M25.06,50.34c0.14,0.68,0.26,1.35,0.39,2.05l0.04,0.23h-3.68
			l0.03-0.18c0.13-0.71,0.26-1.41,0.4-2.11C23.19,50.32,24.13,50.32,25.06,50.34z"/>
	</g>
</g>
</svg>
