<?xml version="1.0" encoding="utf-8"?>
<!-- Generator: Adobe Illustrator 25.4.1, SVG Export Plug-In . SVG Version: 6.00 Build 0)  -->
<svg version="1.1" id="Capa_1" xmlns="http://www.w3.org/2000/svg" xmlns:xlink="http://www.w3.org/1999/xlink" x="0px" y="0px"
	 viewBox="0 0 64 64" style="enable-background:new 0 0 64 64;" xml:space="preserve">
<style type="text/css">
	.st0{fill:#242C4F;}
	.st1{fill:#31BBED;}
	.st2{fill:#004F90;}
	.st3{fill:#50535C;}
</style>
<g>
	<path class="st0" d="M49.41,7.78c-0.17-0.04-4.27-0.83-7.73,1.54c-2.24,1.53-3.65,3.95-4.2,7.15c-0.08,0.36-0.88,3.48-5.48,3.57
		c-4.6-0.09-5.4-3.21-5.47-3.52c-0.56-3.24-1.98-5.67-4.21-7.2c-3.46-2.37-7.56-1.57-7.73-1.54c-0.97,0.2-1.67,1.05-1.67,2.04v29.03
		c0,1.01,0.73,1.87,1.72,2.05c0.23,0.04,5.73,1.11,6.83,6.13c0.67,3.22,3.82,9.32,10.58,9.32s9.83-6.1,10.5-9.3
		c1.11-5.04,6.6-6.11,6.82-6.15c1-0.18,1.73-1.04,1.73-2.05V9.83C51.09,8.84,50.39,7.98,49.41,7.78z M46.92,37.28
		c-2.57,0.88-7.21,3.23-8.45,8.91c-0.05,0.25-1.45,6.01-6.5,6.01s-6.37-5.76-6.42-6.02c-1.25-5.68-5.89-8.02-8.45-8.9V11.82
		c0.88,0.07,1.96,0.31,2.9,0.96c1.26,0.87,2.07,2.37,2.44,4.47c0.43,2.36,3.05,6.86,9.61,6.96c6.56-0.11,9.11-4.6,9.55-6.98
		c0.36-2.08,1.18-3.57,2.43-4.45c0.95-0.66,2.03-0.9,2.9-0.96V37.28z"/>
	<g>
		<path class="st0" d="M27.2,28.17c-0.31-0.32-0.68-0.56-1.1-0.73c-0.41-0.16-0.86-0.24-1.35-0.24c-0.75,0-1.41,0.19-1.96,0.56
			c-0.55,0.37-0.98,0.91-1.26,1.61c-0.15,0.39-0.27,0.86-0.34,1.39c-0.07,0.51-0.1,1.08-0.1,1.71c0,0.5,0.03,0.96,0.09,1.39
			c0.06,0.44,0.17,0.86,0.31,1.24c0.29,0.72,0.73,1.29,1.31,1.7c0.59,0.42,1.26,0.63,2,0.63c0.64,0,1.23-0.16,1.76-0.47
			c0.52-0.31,0.95-0.75,1.28-1.32c0.25-0.44,0.42-0.94,0.51-1.48c0.09-0.5,0.13-1.11,0.13-1.8c0-1.31-0.17-2.31-0.51-3.06
			C27.76,28.86,27.5,28.48,27.2,28.17z M24.11,34.03c-0.08-0.44-0.12-1.02-0.12-1.73c0-1.28,0.15-1.92,0.27-2.23
			c0.13-0.33,0.29-0.4,0.52-0.4c0.24,0,0.33,0.08,0.39,0.14c0.09,0.1,0.22,0.32,0.3,0.76c0.08,0.42,0.12,0.99,0.12,1.68
			c0,0.73-0.04,1.32-0.12,1.76c-0.06,0.36-0.17,0.64-0.31,0.81c-0.06,0.07-0.15,0.15-0.38,0.15c-0.21,0-0.31-0.07-0.37-0.15
			C24.32,34.71,24.19,34.49,24.11,34.03z"/>
		<path class="st0" d="M35.17,28.17c-0.31-0.32-0.68-0.56-1.1-0.73c-0.41-0.16-0.86-0.24-1.35-0.24c-0.75,0-1.41,0.19-1.96,0.56
			c-0.55,0.37-0.98,0.91-1.26,1.61c-0.15,0.39-0.27,0.86-0.34,1.39c-0.07,0.51-0.1,1.08-0.1,1.71c0,0.5,0.03,0.96,0.09,1.39
			c0.06,0.44,0.17,0.86,0.31,1.24c0.29,0.72,0.73,1.29,1.31,1.7c0.59,0.42,1.26,0.63,2,0.63c0.64,0,1.23-0.16,1.76-0.47
			c0.52-0.31,0.95-0.75,1.28-1.32c0.25-0.44,0.42-0.94,0.51-1.48c0.09-0.5,0.13-1.11,0.13-1.8c0-1.31-0.17-2.31-0.51-3.06
			C35.73,28.86,35.47,28.48,35.17,28.17z M32.08,34.03C32,33.59,31.96,33,31.96,32.29c0-1.28,0.15-1.92,0.27-2.23
			c0.13-0.33,0.29-0.4,0.52-0.4c0.24,0,0.33,0.08,0.39,0.14c0.09,0.1,0.22,0.32,0.3,0.76c0.08,0.42,0.12,0.99,0.12,1.68
			c0,0.73-0.04,1.32-0.12,1.76c-0.06,0.36-0.17,0.64-0.31,0.81c-0.06,0.07-0.15,0.15-0.38,0.15c-0.21,0-0.31-0.07-0.37-0.15
			C32.29,34.71,32.16,34.49,32.08,34.03z"/>
		<path class="st0" d="M41.96,27.7c-0.47-0.6-1.44-0.6-1.84-0.18c-0.08,0.08-0.24,0.29-0.49,0.64c-0.19,0.27-0.42,0.52-0.67,0.74
			c-0.25,0.21-0.59,0.42-1.02,0.63c-0.37,0.17-0.62,0.31-0.79,0.44c-0.28,0.21-0.44,0.55-0.44,0.95c0,0.34,0.13,0.65,0.37,0.9
			c0.25,0.26,0.56,0.39,0.9,0.39c0.27,0,0.65-0.08,1.42-0.58v4.24c0,0.48,0.13,0.86,0.38,1.14c0.27,0.3,0.63,0.45,1.05,0.45
			c0.34,0,1.45-0.13,1.45-1.83v-6.86C42.28,28.33,42.17,27.97,41.96,27.7z"/>
	</g>
</g>
</svg>
