<?xml version="1.0" encoding="utf-8"?>
<!-- Generator: Adobe Illustrator 25.4.1, SVG Export Plug-In . SVG Version: 6.00 Build 0)  -->
<svg version="1.1" id="Capa_1" xmlns="http://www.w3.org/2000/svg" xmlns:xlink="http://www.w3.org/1999/xlink" x="0px" y="0px"
	 viewBox="0 0 64 64" style="enable-background:new 0 0 64 64;" xml:space="preserve">
<style type="text/css">
	.st0{fill:#242C4F;}
	.st1{fill:#31BBED;}
	.st2{fill:#004F90;}
	.st3{fill:#50535C;}
</style>
<g>
	<path class="st0" d="M26.25,38.8c1.13,0,2.04,0.91,2.04,2.04c0,1.13-0.91,2.04-2.04,2.04h-8.54c-1.13,0-2.04-0.91-2.04-2.04
		c0-1.13,0.91-2.04,2.04-2.04H26.25z M33.67,38.8c1.13,0,2.04,0.91,2.04,2.04c0,1.13-0.91,2.04-2.04,2.04h-2.11
		c-1.13,0-2.04-0.91-2.04-2.04c0-1.13,0.91-2.04,2.04-2.04H33.67z M51.05,12.95c3,0,5.44,2.44,5.44,5.44v27.22
		c0,3-2.44,5.44-5.44,5.44H12.95c-3.01,0-5.44-2.44-5.44-5.44V18.39c0-3.01,2.44-5.44,5.44-5.44H51.05z M51.05,17.03H12.95
		c-0.75,0-1.36,0.61-1.36,1.36v2.72h40.83v-2.72C52.41,17.64,51.8,17.03,51.05,17.03z M52.41,29.28H11.59v16.33
		c0,0.75,0.61,1.36,1.36,1.36h38.11c0.75,0,1.36-0.61,1.36-1.36V29.28z"/>
	<path class="st0" d="M43.62,34.95l0.22,0.24l0.24-0.24c0.67-0.65,1.6-0.95,2.52-0.8c1.38,0.23,2.39,1.43,2.39,2.83v0.12
		c0,0.83-0.34,1.63-0.95,2.2l-3.62,3.38c-0.15,0.14-0.35,0.22-0.56,0.22c-0.21,0-0.4-0.08-0.56-0.22l-3.62-3.38
		c-0.61-0.57-0.95-1.36-0.95-2.2v-0.12c0-1.4,1.01-2.6,2.39-2.83C42.02,34,42.97,34.3,43.62,34.95
		C43.6,34.95,43.62,34.95,43.62,34.95L43.62,34.95z"/>
</g>
</svg>
