<svg xmlns="http://www.w3.org/2000/svg" xmlns:xlink="http://www.w3.org/1999/xlink" width="1536" zoomAndPan="magnify" viewBox="0 0 1152 219.75" height="293" preserveAspectRatio="xMidYMid meet" version="1.0"><path fill="#252c4f" d="M 175.539062 77.707031 C 173.261719 75.726562 172.121094 72.890625 172.121094 69.195312 C 172.121094 65.46875 173.253906 62.613281 175.519531 60.621094 C 177.78125 58.632812 181.21875 57.644531 185.839844 57.644531 C 190.398438 57.644531 193.816406 58.636719 196.074219 60.621094 C 198.34375 62.609375 199.472656 65.464844 199.472656 69.195312 C 199.472656 72.890625 198.34375 75.726562 196.074219 77.707031 C 193.816406 79.6875 190.402344 80.679688 185.839844 80.679688 C 181.261719 80.679688 177.835938 79.6875 175.539062 77.707031 M 174.746094 91.675781 L 196.902344 91.675781 L 196.902344 167.34375 L 174.746094 167.34375 Z M 174.746094 91.675781 " fill-opacity="1" fill-rule="nonzero"/><path fill="#252c4f" d="M 152.109375 97.695312 C 156.625 102.503906 158.902344 110.03125 158.902344 120.308594 L 158.902344 167.34375 L 136.808594 167.34375 L 136.808594 121.484375 C 136.808594 117.203125 135.941406 114.140625 134.207031 112.296875 C 132.484375 110.441406 130.066406 109.519531 126.980469 109.519531 C 124.757812 109.519531 122.613281 109.945312 120.539062 110.800781 C 118.460938 111.660156 116.683594 112.964844 115.199219 114.710938 C 115.339844 116.234375 115.402344 117.871094 115.402344 119.617188 L 115.402344 167.339844 L 93.734375 167.339844 L 93.734375 121.484375 C 93.734375 117.15625 92.929688 114.082031 91.316406 112.261719 C 89.707031 110.429688 87.351562 109.519531 84.246094 109.519531 C 81.894531 109.519531 79.605469 110.050781 77.367188 111.109375 C 75.117188 112.179688 73.289062 113.742188 71.859375 115.816406 L 71.859375 167.339844 L 49.703125 167.339844 L 49.703125 91.675781 L 67.910156 91.675781 L 69.429688 99.359375 L 70.46875 99.359375 C 75.863281 93.460938 82.953125 90.5 91.722656 90.5 C 95.917969 90.5 99.679688 91.292969 102.976562 92.898438 C 106.269531 94.488281 108.949219 96.960938 110.972656 100.324219 C 114.109375 96.960938 117.648438 94.488281 121.566406 92.898438 C 125.480469 91.292969 129.53125 90.5 133.679688 90.5 C 141.449219 90.5 147.589844 92.90625 152.109375 97.695312 " fill-opacity="1" fill-rule="nonzero"/><path fill="#252c4f" d="M 1098.121094 39.71875 C 1088.816406 32.488281 1078.5625 26.839844 1067.449219 22.890625 C 1055.316406 18.558594 1042.527344 16.773438 1029.6875 16.773438 C 1020.757812 16.773438 1011.847656 17.90625 1003.398438 20.722656 C 995.917969 23.222656 988.976562 26.898438 982.96875 32.03125 C 977.308594 36.898438 972.914062 42.683594 969.726562 49.449219 C 966.367188 56.585938 965.023438 64.277344 965.023438 72.125 L 965.023438 72.664062 C 965.023438 80.332031 966.035156 88.472656 969.3125 95.488281 C 972.160156 101.488281 976.183594 106.589844 981.417969 110.660156 C 987.199219 115.1875 993.859375 118.550781 1000.722656 121.09375 C 1009.171875 124.226562 1017.847656 126.746094 1026.585938 128.925781 C 1033.152344 130.523438 1039.792969 132.332031 1046.148438 134.636719 C 1050.179688 136.128906 1054.554688 137.914062 1058.160156 140.230469 C 1060.695312 141.878906 1063.183594 144.042969 1064.519531 146.796875 C 1065.699219 149.277344 1066.179688 152.023438 1066.179688 154.753906 L 1066.179688 155.296875 C 1066.179688 161.570312 1063.425781 166.488281 1058.195312 169.921875 C 1052.132812 173.9375 1044.128906 174.953125 1037.007812 174.953125 C 1026.34375 174.953125 1015.996094 172.984375 1006.292969 168.566406 C 998.015625 164.824219 987.34375 161.023438 978.125 162.242188 C 972.082031 163.035156 967.484375 165.851562 963.597656 170.464844 C 961.347656 173.148438 959.535156 176.199219 957.894531 179.273438 C 968.601562 188.738281 980.722656 196.058594 994.214844 200.894531 C 1007.765625 205.703125 1021.804688 208.21875 1036.183594 208.21875 C 1045.539062 208.21875 1054.902344 207.148438 1063.867188 204.371094 C 1071.613281 201.988281 1078.910156 198.421875 1085.238281 193.316406 C 1091.242188 188.472656 1095.820312 182.507812 1099.117188 175.53125 C 1102.773438 167.734375 1104.109375 159.257812 1104.109375 150.703125 C 1104.109375 143.703125 1103.136719 136.472656 1100.304688 130 C 1097.742188 124.171875 1093.96875 119.234375 1089.125 115.070312 C 1083.667969 110.378906 1077.242188 106.777344 1070.613281 103.988281 C 1062.398438 100.523438 1053.835938 97.828125 1045.234375 95.539062 C 1038.441406 93.742188 1031.664062 91.875 1024.929688 89.828125 C 1020.578125 88.476562 1015.90625 86.84375 1011.964844 84.496094 C 1009.140625 82.859375 1006.445312 80.648438 1004.910156 77.699219 C 1003.472656 74.984375 1002.941406 71.933594 1002.941406 68.859375 L 1002.941406 68.355469 C 1002.941406 62.847656 1005.414062 58.488281 1009.742188 55.148438 C 1015.070312 51.003906 1022.605469 50.023438 1029.148438 50.023438 C 1037.820312 50.023438 1046.210938 51.902344 1054.230469 55.179688 C 1064.640625 59.453125 1080.164062 64.289062 1089.628906 55.414062 C 1093.925781 51.363281 1096.378906 45.292969 1098.121094 39.71875 " fill-opacity="1" fill-rule="evenodd"/><path fill="#252c4f" d="M 375.078125 53.535156 C 373.304688 49.34375 371.5625 45.128906 369.765625 40.914062 C 368.4375 37.855469 367.113281 34.730469 365.605469 31.71875 C 363.78125 28.082031 361.511719 24.023438 358.019531 21.65625 C 354.59375 19.351562 350.109375 18.703125 346.074219 18.445312 C 342.792969 18.179688 339.4375 18.148438 336.140625 18.09375 C 332.050781 18.085938 327.953125 18.09375 323.84375 18.09375 L 244.035156 205.511719 C 248.15625 205.511719 252.25 205.511719 256.402344 205.464844 C 260.078125 205.402344 263.8125 205.328125 267.488281 205.03125 C 272.042969 204.617188 277.046875 203.847656 280.839844 201.152344 C 284.746094 198.375 287.257812 193.574219 289.210938 189.316406 C 290.871094 185.828125 292.324219 182.210938 293.761719 178.632812 C 295.707031 173.796875 297.613281 168.925781 299.585938 164.113281 L 300.054688 162.972656 L 382.71875 162.972656 L 400.082031 205.515625 L 439.828125 205.515625 Z M 313.488281 129.71875 L 341.382812 61.722656 L 369.269531 129.71875 Z M 313.488281 129.71875 " fill-opacity="1" fill-rule="evenodd"/><path fill="#252c4f" d="M 454.789062 19.46875 L 454.789062 205.503906 C 464.78125 205.402344 478.164062 204.445312 485.320312 197.09375 C 491.484375 190.71875 492.40625 180.367188 492.40625 171.949219 L 492.40625 81.445312 L 587.039062 205.515625 L 619.890625 205.515625 L 619.890625 19.46875 C 613.535156 19.46875 606.785156 19.425781 600.550781 20.21875 C 596.453125 20.757812 591.925781 21.746094 588.710938 24.582031 C 586 26.972656 584.628906 30.382812 583.796875 33.851562 C 582.414062 39.46875 582.25 45.972656 582.25 51.707031 L 582.25 139.738281 L 490.632812 19.46875 Z M 454.789062 19.46875 " fill-opacity="1" fill-rule="evenodd"/><path fill="#252c4f" d="M 777.875 39.71875 C 768.5625 32.488281 758.3125 26.839844 747.203125 22.890625 C 735.066406 18.558594 722.285156 16.773438 709.433594 16.773438 C 700.539062 16.773438 691.617188 17.90625 683.148438 20.722656 C 675.667969 23.222656 668.742188 26.898438 662.738281 32.03125 C 657.078125 36.878906 652.640625 42.703125 649.492188 49.449219 C 646.171875 56.585938 644.777344 64.277344 644.777344 72.125 L 644.777344 72.664062 C 644.777344 80.332031 645.769531 88.472656 649.074219 95.488281 C 651.898438 101.488281 655.949219 106.589844 661.179688 110.660156 C 666.960938 115.1875 673.640625 118.550781 680.492188 121.09375 C 688.917969 124.226562 697.613281 126.746094 706.324219 128.925781 C 712.878906 130.523438 719.542969 132.332031 725.90625 134.636719 C 729.929688 136.128906 734.289062 137.914062 737.929688 140.230469 C 740.46875 141.878906 742.9375 144.042969 744.261719 146.796875 C 745.4375 149.277344 745.945312 152.023438 745.945312 154.753906 L 745.945312 155.296875 C 745.945312 161.570312 743.179688 166.488281 737.941406 169.921875 C 731.851562 173.9375 723.867188 174.953125 716.746094 174.953125 C 706.097656 174.953125 695.730469 172.984375 686.039062 168.566406 C 677.789062 164.824219 667.101562 161.023438 657.855469 162.242188 C 651.828125 163.035156 647.21875 165.851562 643.34375 170.464844 C 641.109375 173.148438 639.285156 176.199219 637.640625 179.273438 C 648.359375 188.738281 660.476562 196.058594 673.972656 200.894531 C 687.511719 205.703125 701.554688 208.21875 715.929688 208.21875 C 725.269531 208.21875 734.65625 207.148438 743.613281 204.371094 C 751.347656 201.988281 758.644531 198.421875 764.976562 193.316406 C 770.984375 188.472656 775.570312 182.507812 778.851562 175.53125 C 782.460938 167.917969 783.855469 159.605469 783.855469 151.222656 L 783.855469 150.703125 C 783.855469 143.703125 782.898438 136.472656 780.054688 130 C 777.519531 124.171875 773.703125 119.234375 768.871094 115.070312 C 763.40625 110.378906 756.996094 106.777344 750.363281 103.988281 C 742.152344 100.523438 733.589844 97.828125 724.960938 95.539062 C 718.195312 93.742188 711.40625 91.875 704.722656 89.828125 C 700.363281 88.476562 695.652344 86.84375 691.710938 84.496094 C 688.882812 82.859375 686.199219 80.648438 684.652344 77.699219 C 683.234375 74.984375 682.683594 71.933594 682.683594 68.859375 L 682.683594 68.355469 C 682.683594 62.847656 685.195312 58.488281 689.472656 55.148438 C 694.820312 51.003906 702.351562 50.023438 708.910156 50.023438 C 717.585938 50.023438 725.976562 51.902344 734.003906 55.179688 C 744.410156 59.453125 759.910156 64.289062 769.398438 55.414062 C 773.664062 51.363281 776.113281 45.292969 777.875 39.71875 " fill-opacity="1" fill-rule="evenodd"/><path fill="#252c4f" d="M 804.933594 19.46875 L 804.933594 205.515625 L 945.902344 205.515625 C 945.9375 197.6875 946.015625 186.945312 941.75 180.65625 C 936.457031 172.898438 924.84375 171.976562 916.324219 171.976562 L 842.851562 171.976562 L 842.851562 128.578125 L 932.355469 128.578125 C 932.386719 124.558594 932.503906 120.507812 932.257812 116.539062 C 932.050781 112.808594 931.472656 108.878906 929.679688 105.570312 C 924.4375 95.867188 909.605469 95.050781 900.023438 95.050781 L 842.84375 95.050781 L 842.84375 53.007812 L 916.902344 53.007812 C 924.035156 53.007812 934.59375 52.554688 939.632812 46.628906 C 942.175781 43.625 943.203125 39.527344 943.746094 35.714844 C 944.488281 30.453125 944.523438 24.835938 944.523438 19.46875 Z M 804.933594 19.46875 " fill-opacity="1" fill-rule="evenodd"/></svg>