<?xml version="1.0" encoding="utf-8"?>
<!-- Generator: Adobe Illustrator 25.4.1, SVG Export Plug-In . SVG Version: 6.00 Build 0)  -->
<svg version="1.1" id="Capa_1" xmlns="http://www.w3.org/2000/svg" xmlns:xlink="http://www.w3.org/1999/xlink" x="0px" y="0px"
	 viewBox="0 0 64 64" style="enable-background:new 0 0 64 64;" xml:space="preserve">
<style type="text/css">
	.st0{fill:#242C4F;}
	.st1{fill:#31BBED;}
	.st2{fill:#004F90;}
	.st3{fill:#50535C;}
</style>
<g>
	<path class="st0" d="M32.9,48.47c-3.41-0.06-5.83-0.3-8.17-1.03c-0.5-0.15-0.87-0.08-1.32,0.2c-2.32,1.43-4.73,2.7-7.46,3.15
		c-1.23,0.2-2.49,0.32-3.73,0.41c-0.82,0.05-1.47-0.29-1.81-1.11c-0.36-0.86-0.29-1.62,0.29-2.39c1.05-1.39,2.03-2.84,3.03-4.26
		c0.02-0.03,0.04-0.07,0.06-0.1c0.73-1.16,1.21-2.29-0.25-3.28c-2.09-2.72-3.29-5.78-3.34-9.22c-0.06-3.52,1.05-6.7,3.19-9.49
		c3.78-4.92,8.92-7.4,14.96-8.25c5.03-0.71,9.88-0.06,14.45,2.13c4.66,2.24,8.28,5.61,10.07,10.58c1.61,4.46,1.12,8.79-1.41,12.79
		c-3.18,5.05-7.9,7.95-13.67,9.17C35.88,48.16,33.9,48.33,32.9,48.47z M16.78,46.4c0.26-0.09,0.44-0.15,0.61-0.21
		c1.98-0.7,3.73-1.8,5.39-3.05c0.38-0.29,0.71-0.36,1.19-0.2c2.26,0.76,4.56,1.33,6.95,1.42c2.94,0.1,5.81-0.28,8.57-1.3
		c3.86-1.43,7.09-3.69,8.96-7.49c1.59-3.23,1.57-6.53,0.02-9.78c-1.52-3.18-4.09-5.32-7.22-6.77c-4.58-2.11-9.37-2.59-14.31-1.48
		c-4.3,0.97-7.94,2.99-10.61,6.59c-2.82,3.82-2.88,8.99-0.09,12.83c0.83,1.15,1.83,2.18,2.78,3.25c0.21,0.23,0.25,0.42,0.14,0.7
		c-0.4,1-0.76,2.03-1.19,3.02C17.63,44.75,17.21,45.52,16.78,46.4z"/>
	<path class="st0" d="M34.02,26.62c0,1.48,0.01,2.97,0,4.45c-0.01,1.15-0.54,1.95-1.45,2.2c-1.38,0.38-2.59-0.5-2.61-2.03
		c-0.05-3.12-0.04-6.24,0-9.36c0.01-0.9,0.39-1.66,1.33-1.99c0.79-0.27,1.77-0.09,2.2,0.58c0.3,0.47,0.48,1.08,0.51,1.64
		C34.07,23.61,34.02,25.11,34.02,26.62z"/>
	<path class="st0" d="M31.99,41.61c-1.53,0.01-2.71-1.16-2.72-2.7c-0.02-1.53,1.14-2.71,2.69-2.74c1.54-0.03,2.76,1.18,2.75,2.73
		C34.69,40.44,33.52,41.6,31.99,41.61z"/>
</g>
</svg>
