<?xml version="1.0" encoding="utf-8"?>
<!-- Generator: Adobe Illustrator 25.4.1, SVG Export Plug-In . SVG Version: 6.00 Build 0)  -->
<svg version="1.1" id="Capa_1" xmlns="http://www.w3.org/2000/svg" xmlns:xlink="http://www.w3.org/1999/xlink" x="0px" y="0px"
	 viewBox="0 0 64 64" style="enable-background:new 0 0 64 64;" xml:space="preserve">
<style type="text/css">
	.st0{fill:#242C4F;}
	.st1{fill:#31BBED;}
	.st2{fill:#004F90;}
	.st3{fill:#50535C;}
</style>
<g>
	<path class="st0" d="M50.2,18.15c-0.65-0.66-1.09-1.44-1.22-2.37c-0.07-0.48-0.07-0.97-0.11-1.45c-0.08-1.03-0.49-1.94-1.23-2.64
		c-0.35-0.33-0.73-0.59-1.13-0.79c-0.08-0.95-0.88-1.7-1.86-1.7c-0.98,0-1.78,0.76-1.86,1.72c-1.06,0.48-1.8,1.35-2.16,2.58
		c-0.17,0.58-0.2,1.2-0.24,1.81c-0.08,1.13-0.47,2.1-1.3,2.89c-0.45,0.43-0.29,0.92,0.02,1.12c0.18,0.11,0.43,0.17,0.64,0.17
		c1.64,0.01,3.27,0.01,4.91,0.01c1.65,0,3.3,0,4.95,0c0.35,0,0.65-0.11,0.8-0.47C50.56,18.68,50.44,18.41,50.2,18.15z"/>
	<path class="st0" d="M45.72,46.96c-0.92,0-1.76,0-2.66,0c0,0.25,0,0.47,0,0.7c0,2.53,0,2.08,0,4.61c0,0.34-0.03,0.68-0.09,1.01
		c-0.15,0.88-0.74,1.38-1.72,1.52c-0.69,0.09-1.62-0.41-1.87-1.09c-0.15-0.41-0.24-0.88-0.25-1.32c-0.02-2.56-0.01-2.16-0.01-4.72
		c0-0.22,0-0.44,0-0.71c-1.34,0-2.62,0-3.99,0c0.82-2.34,1.6-7.58,2.44-9.97c-0.19,0.16-0.28,0.24-0.36,0.31
		c-0.65,0.59-1.49,0.71-2.19,0.33c-0.92-0.51-1.25-1.17-1.07-2.13c0.03-0.18,0.07-0.37,0.14-0.55c1.27-3.06,2.52-6.13,3.84-9.17
		c0.85-1.96,2.42-3.14,4.53-3.39c1.72-0.2,3.47-0.29,5.18,0.13c1.7,0.42,3.02,1.42,3.73,3.03c1.37,3.12,2.66,6.28,3.96,9.43
		c0.38,0.92,0.17,1.79-0.48,2.32c-0.82,0.68-1.75,0.73-2.66,0.15c-0.17-0.11-0.33-0.23-0.63-0.44c0.78,2.39,1.52,7.6,2.28,9.92
		c-1.36,0-2.66,0-4.05,0c0,0.26,0,0.46,0,0.66c0,2.64,0,2.31,0,4.95c0,1.17-0.55,1.96-1.49,2.19c-1.42,0.36-2.54-0.59-2.55-2.19
		c-0.01-2.62,0-2.27,0-4.89C45.72,47.41,45.72,47.21,45.72,46.96z M48.53,42.85c-0.75-4-2.52-12.79-3.77-16.57
		c-0.05,0.01-0.1,0.02-0.15,0.03c-1.25,3.77-2.85,12.22-3.75,16.54C43.46,42.85,45.95,42.85,48.53,42.85z"/>
	<path class="st0" d="M22.38,41.26c-0.94,0-1.81,0-2.75,0c0,0.24,0,0.46,0,0.67c0,3.51,0,7.01,0,10.52c0,1.19-0.52,1.98-1.44,2.23
		c-1.37,0.38-2.51-0.5-2.6-2.02c-0.01-0.17,0-0.34,0-0.51c0-6.13,0-12.25,0-18.38c0-0.21,0-0.41,0-0.62
		c-0.03-0.01-0.07-0.02-0.1-0.03c-0.24,0.56-0.47,1.12-0.71,1.67c-0.31,0.71-0.59,1.43-0.96,2.11c-0.44,0.8-1.46,1.13-2.25,0.82
		c-1.03-0.42-1.5-1.21-1.32-2.21c0.04-0.2,0.07-0.41,0.15-0.6c1.26-3.04,2.51-6.1,3.82-9.12c0.89-2.05,2.52-3.28,4.74-3.44
		c1.66-0.12,3.37-0.08,5,0.18c1.67,0.27,2.98,1.35,3.67,2.91c1.39,3.15,2.69,6.35,4,9.54c0.31,0.75,0.33,1.52-0.31,2.16
		c-0.57,0.57-1.23,0.85-2.05,0.62c-0.72-0.21-1.1-0.75-1.38-1.39c-0.45-1.07-0.9-2.14-1.47-3.2c0,0.19,0,0.38,0,0.58
		c0,6.22,0,12.44,0,18.66c0,1.24-0.5,2.03-1.44,2.29c-1.39,0.39-2.54-0.52-2.6-2.07c-0.02-0.53,0-1.06,0-1.58c0-3.04,0-6.07,0-9.11
		C22.38,41.73,22.38,41.52,22.38,41.26z M22.25,37.17c0-3.64,0-7.23,0-10.83c-0.88,0-1.72,0-2.59,0c0,3.62,0,7.21,0,10.83
		C20.53,37.17,21.37,37.17,22.25,37.17z"/>
	<path class="st0" d="M24.96,15.45c0.01,2.2-1.78,4.12-3.94,4.04C18.7,19.41,17,17.95,17,15.48c-0.01-2.39,1.57-3.97,4-4.03
		C23.26,11.4,24.96,13.25,24.96,15.45z"/>
	<g>
		<path class="st0" d="M9.99,54.69c-0.82,0-1.48-0.66-1.48-1.48V40.02c0-0.82,0.66-1.48,1.48-1.48s1.48,0.66,1.48,1.48v13.19
			C11.47,54.03,10.81,54.69,9.99,54.69z"/>
	</g>
</g>
</svg>
