<?xml version="1.0" encoding="utf-8"?>
<!-- Generator: Adobe Illustrator 25.4.1, SVG Export Plug-In . SVG Version: 6.00 Build 0)  -->
<svg version="1.1" id="Capa_1" xmlns="http://www.w3.org/2000/svg" xmlns:xlink="http://www.w3.org/1999/xlink" x="0px" y="0px"
	 viewBox="0 0 64 64" style="enable-background:new 0 0 64 64;" xml:space="preserve">
<style type="text/css">
	.st0{fill:#242C4F;}
</style>
<g>
	<path class="st0" d="M33.26,47.51c-0.2-0.39-0.39-0.54-0.84-0.54c-7.26,0.02-14.52,0.01-21.78,0.01c-1.28,0-1.74-0.46-1.74-1.74
		c0-2.85,0-5.69,0-8.54c0-0.2,0-0.39,0-0.56c4.14,0,8.18,0,12.25,0c0,0.44-0.01,0.84,0,1.23c0.05,1.71,1.06,2.75,2.77,2.78
		c1.77,0.03,3.54,0.04,5.32,0c1.68-0.04,2.68-1.06,2.74-2.75c0.02-0.43,0-0.85,0-1.36c0.89,0.28,1.16-0.24,1.47-0.86
		c0.41-0.84,0.93-1.63,1.42-2.44c0.13-0.21,0.28-0.41,0.49-0.73c-8.9,0-17.66,0-26.45,0c0-0.26,0-0.47,0-0.67c0-2.32,0-4.64,0-6.96
		c0-1.45,0.43-1.88,1.89-1.88c10.52,0,21.04,0,31.56,0c0.09,0,0.19,0,0.28,0c1.09,0.02,1.58,0.5,1.59,1.6c0.01,0.75,0,1.51,0,2.26
		c0,0.14,0.03,0.28,0.05,0.41c0.7-0.07,1.35-0.15,2.01-0.19c0.65-0.03,1.3-0.01,2.03-0.01c-0.05-1.17-0.06-2.32-0.16-3.46
		c-0.21-2.28-2.28-4.38-4.57-4.55c-1.82-0.13-3.65-0.09-5.48-0.12c-0.22,0-0.44,0-0.7,0c0-0.88,0.01-1.69,0-2.5
		c-0.04-3.23-2.39-5.61-5.61-5.64c-3.49-0.03-6.98-0.05-10.46,0.01c-2.24,0.04-4.04,0.98-4.99,3.08c-0.37,0.81-0.49,1.77-0.6,2.67
		c-0.1,0.77-0.02,1.56-0.02,2.38c-1.74,0-3.4-0.02-5.06,0.01c-0.54,0.01-1.1,0.06-1.62,0.2c-2.62,0.7-4.18,2.77-4.18,5.54
		C4.86,31.2,4.86,38.22,4.88,45.23c0,0.54,0.06,1.1,0.21,1.62C5.82,49.46,7.86,51,10.59,51c8.07,0.01,16.14,0,24.21,0
		c0.14,0,0.29,0,0.54,0c-0.17-0.25-0.29-0.41-0.39-0.58C34.37,49.47,33.77,48.51,33.26,47.51z M19.86,15.39
		c0.06-0.66,0.64-1,1.43-1.01c1.45-0.01,2.9,0,4.35,0c1.98,0,3.95,0,5.93,0c1.38,0,1.81,0.43,1.81,1.83c0,0.73,0,1.46,0,2.25
		c-4.56,0-9.04,0-13.54,0C19.84,17.43,19.77,16.41,19.86,15.39z"/>
	<path class="st0" d="M46.97,29.41c-6.94-0.03-12.16,5.03-12.17,12.13c-0.01,6.92,5.05,12.11,12.11,12.14
		c6.94,0.03,11.97-5.1,12.22-12.14C58.88,34.62,54.02,29.43,46.97,29.41z M53.34,38.96c-0.43,0.66-0.96,1.26-1.47,1.86
		c-1.71,2.01-3.43,4.01-5.14,6.01c-0.69,0.81-1.93,0.9-2.71,0.14c-1.05-1.02-2.09-2.05-3.1-3.11c-0.99-1.03-0.57-2.51,0.77-2.81
		c0.65-0.15,1.16,0.16,1.61,0.58c0.56,0.52,1.1,1.06,1.64,1.59c0.11,0.1,0.22,0.2,0.35,0.32c1.42-1.67,2.8-3.31,4.2-4.95
		c0.47-0.55,0.94-1.12,1.48-1.61c0.6-0.55,1.42-0.49,2.05,0.04C53.57,37.5,53.76,38.32,53.34,38.96z"/>
</g>
</svg>
