<?xml version="1.0" encoding="utf-8"?>
<!-- Generator: Adobe Illustrator 25.4.1, SVG Export Plug-In . SVG Version: 6.00 Build 0)  -->
<svg version="1.1" id="Capa_1" xmlns="http://www.w3.org/2000/svg" xmlns:xlink="http://www.w3.org/1999/xlink" x="0px" y="0px"
	 viewBox="0 0 64 64" style="enable-background:new 0 0 64 64;" xml:space="preserve">
<style type="text/css">
	.st0{fill:#242C4F;}
</style>
<g>
	<path class="st0" d="M26.83,45.64c-0.55-0.19-1.04-0.29-1.46-0.53c-0.9-0.49-1.23-1.35-1.24-2.32c-0.02-2.22-0.05-4.45,0-6.67
		c0.06-2.44,1.81-4.1,4.25-4.13c1.66-0.02,3.32-0.02,4.97,0c2.55,0.02,4.28,1.76,4.3,4.32c0.01,2.02,0,4.03,0,6.05
		c0,1.99-0.66,2.8-2.68,3.2c-0.01,0.17-0.03,0.36-0.03,0.56c0,1.53,0,3.05,0,4.58c-0.01,1.94-1.03,2.97-2.96,2.99
		c-0.77,0.01-1.55,0.01-2.32,0c-1.77-0.04-2.8-1.06-2.83-2.83c-0.02-1.55,0-3.09,0-4.64C26.83,46,26.83,45.8,26.83,45.64z
		 M28.19,36.05c0,1.84,0,3.62,0,5.41c1.81,0,3.59,0,5.37,0c0-1.82,0-3.61,0-5.41C31.76,36.05,29.99,36.05,28.19,36.05z"/>
	<path class="st0" d="M47.68,38.8c-0.06-0.24-0.09-0.4-0.14-0.56c-0.88-3.02-1.76-6.04-2.65-9.06c-0.3-1.01-0.69-1.3-1.76-1.3
		c-1.98,0-3.96,0-6.01,0c0.08-0.22,0.17-0.4,0.2-0.59c0.11-0.83,0.19-1.67,0.32-2.49c0.03-0.18,0.15-0.46,0.28-0.49
		c0.72-0.19,1.45-0.4,2.19-0.45c1.05-0.07,2.11-0.02,3.16-0.02c2.67,0.01,4.67,1.47,5.43,4.01c1.11,3.73,2.2,7.48,3.28,11.22
		c0.58,2.02-0.74,3.73-2.85,3.74c-0.64,0-1.27,0-1.98,0c0,0.25,0,0.45,0,0.65c0,2.62,0,5.24,0,7.86c0,1.18-0.52,1.97-1.45,2.23
		c-1.43,0.4-2.58-0.57-2.59-2.2c-0.01-2.62,0-5.24,0-7.86c0-0.2,0-0.41,0-0.66c-0.91,0-1.76,0-2.67,0c0-1.36,0-2.66,0-4.04
		C42.82,38.8,45.22,38.8,47.68,38.8z"/>
	<path class="st0" d="M23.96,24.01c0.19,1.41,0.35,2.63,0.52,3.88c-0.98,0-2.09,0-3.19,0c-1.28,0-2.56-0.01-3.85,0
		c-0.9,0.01-1.47,0.5-1.48,1.36c-0.03,2.24-0.01,4.48-0.01,6.79c1.81,0,3.58,0,5.39,0c0,1.38,0,2.69,0,4.04c-0.88,0-1.74,0-2.68,0
		c0,0.26,0,0.48,0,0.7c0,3.51,0,7.01,0,10.52c0,1.25-0.54,2.02-1.54,2.27c-1.41,0.34-2.49-0.63-2.5-2.25c-0.01-3.26,0-6.52,0-9.79
		c0-0.45,0-0.9,0-1.4c-0.31-0.06-0.6-0.09-0.88-0.17c-1.11-0.33-1.81-1.26-1.82-2.58c-0.03-2.7-0.08-5.4,0.01-8.09
		c0.1-3.21,2.47-5.43,5.68-5.45c1.66-0.01,3.32-0.02,4.98,0.01C23.09,23.86,23.6,23.96,23.96,24.01z"/>
	<path class="st0" d="M25.43,15.69c-0.19,3.2-2.44,5.39-5.44,5.36c-3.14-0.04-5.34-2.34-5.33-5.38c0.01-3.15,2.35-5.39,5.4-5.36
		C23.26,10.35,25.27,12.71,25.43,15.69z"/>
	<path class="st0" d="M41.72,21.09c-3.2-0.21-5.39-2.47-5.34-5.46c0.05-3.2,2.42-5.35,5.39-5.31c3.26,0.04,5.39,2.48,5.34,5.42
		C47.05,18.98,44.64,20.94,41.72,21.09z"/>
	<path class="st0" d="M34.93,25.17c-0.17,2.37-1.62,4.01-4.03,4.02c-2.31,0.01-4.01-1.51-4.02-3.99c-0.01-2.35,1.53-4,3.99-4.02
		C33.27,21.16,34.73,22.77,34.93,25.17z"/>
</g>
</svg>
